<svg width="24" height="24" viewBox="0 0 24 24" fill="none" xmlns="http://www.w3.org/2000/svg">
<path fill-rule="evenodd" clip-rule="evenodd" d="M15.0728 1.99963H8.93726C3.33299 1.99963 1.99963 3.33299 1.99963 8.92685V15.0624C1.99963 20.6667 3.32258 22 8.92685 22H15.0624C20.6667 22 22 20.6771 22 15.0728V8.93726C22 3.33299 20.6771 1.99963 15.0728 1.99963ZM17.9375 8.35419C18.375 8.35419 18.4687 8.57294 18.375 8.88545C18.2185 9.64002 16.8102 11.679 16.4839 12.1514C16.4408 12.2138 16.4166 12.2489 16.4166 12.2501C16.2603 12.4897 16.1978 12.6147 16.4166 12.8959C16.4911 13.0077 16.6607 13.1738 16.8547 13.3637C17.0404 13.5456 17.2485 13.7493 17.4166 13.948C18.0416 14.6564 18.5104 15.2502 18.6458 15.6564C18.7708 16.0627 18.5625 16.271 18.1458 16.271H16.6874C16.3005 16.271 16.1029 16.051 15.6787 15.5788C15.4976 15.3772 15.2751 15.1296 14.9791 14.8335C14.1145 14.0001 13.7499 13.896 13.5311 13.896C13.229 13.896 13.1457 13.9793 13.1457 14.396V15.7085C13.1457 16.0627 13.0311 16.271 12.104 16.271C10.5623 16.271 8.86436 15.3335 7.65601 13.6043C5.84347 11.073 5.35388 9.15629 5.35388 8.77086C5.35388 8.55211 5.43722 8.35419 5.85389 8.35419H7.31225C7.68726 8.35419 7.82268 8.52086 7.96851 8.90628C8.67686 10.9897 9.88522 12.8022 10.3748 12.8022C10.5623 12.8022 10.6456 12.7189 10.6456 12.2501V10.1042C10.6072 9.50232 10.3956 9.23892 10.2383 9.04304C10.1396 8.92025 10.0623 8.82399 10.0623 8.68753C10.0623 8.53127 10.2081 8.35419 10.4373 8.35419H12.729C13.0415 8.35419 13.1457 8.51044 13.1457 8.88545V11.7813C13.1457 12.0938 13.2811 12.198 13.3749 12.198C13.5624 12.198 13.7082 12.0938 14.052 11.7501C15.1041 10.5834 15.8437 8.77086 15.8437 8.77086C15.9374 8.55211 16.1041 8.35419 16.4791 8.35419H17.9375Z" fill="#0F1113"/>
</svg>
