<svg width="186" height="60" viewBox="0 0 186 60" fill="none" xmlns="http://www.w3.org/2000/svg">
<g clip-path="url(#clip0_2_1646)">
<path d="M74.0012 36.2918C74.0012 37.5089 73.7532 38.5964 73.2574 39.5543C72.7728 40.5122 72.1023 41.3066 71.2458 41.9377C70.2541 42.6815 69.161 43.2111 67.9665 43.5267C66.7832 43.8422 65.2787 44 63.4531 44H52.4655V18.83H62.236C64.2645 18.83 65.7464 18.8976 66.6818 19.0329C67.6284 19.1681 68.5637 19.4667 69.4878 19.9288C70.4457 20.4134 71.1557 21.067 71.6177 21.8896C72.091 22.701 72.3277 23.6307 72.3277 24.6788C72.3277 25.8959 72.0065 26.9721 71.3642 27.9074C70.7218 28.8315 69.8146 29.5528 68.6426 30.0711V30.2064C70.2879 30.5332 71.5895 31.2093 72.5474 32.2349C73.5166 33.2604 74.0012 34.6127 74.0012 36.2918ZM65.6844 25.9466C65.6844 25.5296 65.5774 25.1127 65.3632 24.6957C65.1604 24.2787 64.7941 23.9688 64.2645 23.766C63.7912 23.5857 63.1995 23.4899 62.4896 23.4786C61.7909 23.4561 60.8048 23.4448 59.5314 23.4448H58.9228V28.7695H59.9371C60.9626 28.7695 61.836 28.7526 62.5572 28.7188C63.2784 28.685 63.8475 28.5723 64.2645 28.3808C64.8505 28.1216 65.2337 27.7891 65.414 27.3834C65.5943 26.9665 65.6844 26.4875 65.6844 25.9466ZM67.2734 36.1904C67.2734 35.3903 67.1156 34.7761 66.8001 34.3478C66.4958 33.9083 65.9718 33.5815 65.228 33.3674C64.7209 33.2209 64.0222 33.142 63.1319 33.1308C62.2417 33.1195 61.3119 33.1139 60.3428 33.1139H58.9228V39.3852H59.3962C61.2218 39.3852 62.529 39.3796 63.3179 39.3683C64.1067 39.357 64.8336 39.2105 65.4985 38.9288C66.1746 38.6471 66.6367 38.2752 66.8846 37.8132C67.1438 37.3398 67.2734 36.7989 67.2734 36.1904ZM97.1934 35.6325H83.2645C83.3547 37.1201 83.9181 38.2583 84.9549 39.0471C86.003 39.836 87.5412 40.2304 89.5697 40.2304C90.8544 40.2304 92.0997 39.9994 93.3055 39.5374C94.5113 39.0753 95.4635 38.5795 96.1622 38.0498H96.8384V42.9351C95.4635 43.4872 94.1676 43.8873 92.9505 44.1352C91.7334 44.3832 90.3867 44.5071 88.9104 44.5071C85.1014 44.5071 82.1827 43.6507 80.1542 41.9377C78.1257 40.2248 77.1115 37.785 77.1115 34.6183C77.1115 31.4854 78.0694 29.0062 79.9852 27.1806C81.9122 25.3437 84.5492 24.4252 87.8962 24.4252C90.984 24.4252 93.3055 25.2084 94.8606 26.7749C96.4158 28.33 97.1934 30.5726 97.1934 33.5026V35.6325ZM91.1418 32.0658C91.108 30.7924 90.7924 29.8345 90.1952 29.1921C89.5979 28.5498 88.6682 28.2286 87.406 28.2286C86.234 28.2286 85.2705 28.5329 84.5154 29.1414C83.7604 29.75 83.3378 30.7248 83.2476 32.0658H91.1418ZM120.555 44H114.435V34.5845C114.435 33.8182 114.396 33.0575 114.317 32.3025C114.238 31.5362 114.103 30.9727 113.911 30.6121C113.686 30.1951 113.354 29.8908 112.914 29.6993C112.486 29.5077 111.883 29.4119 111.105 29.4119C110.553 29.4119 109.99 29.502 109.415 29.6824C108.851 29.8627 108.237 30.15 107.572 30.5445V44H101.487V17.6975H107.572V27.113C108.654 26.2678 109.691 25.6198 110.683 25.169C111.686 24.7182 112.796 24.4928 114.013 24.4928C116.064 24.4928 117.664 25.0901 118.814 26.2847C119.974 27.4792 120.555 29.2654 120.555 31.6432V44ZM145.572 34.5169C145.572 37.6385 144.66 40.1008 142.834 41.9039C141.02 43.6957 138.467 44.5916 135.177 44.5916C131.886 44.5916 129.328 43.6957 127.502 41.9039C125.688 40.1008 124.781 37.6385 124.781 34.5169C124.781 31.3727 125.693 28.9048 127.519 27.113C129.356 25.3211 131.908 24.4252 135.177 24.4252C138.49 24.4252 141.048 25.3268 142.851 27.1299C144.665 28.9329 145.572 31.3953 145.572 34.5169ZM138.084 39.1317C138.478 38.6471 138.771 38.0667 138.963 37.3906C139.166 36.7031 139.267 35.7565 139.267 34.5507C139.267 33.435 139.166 32.4997 138.963 31.7446C138.76 30.9896 138.478 30.3867 138.118 29.9359C137.757 29.4739 137.323 29.1471 136.816 28.9555C136.309 28.7639 135.763 28.6681 135.177 28.6681C134.591 28.6681 134.067 28.747 133.604 28.9048C133.154 29.0625 132.72 29.3781 132.303 29.8514C131.931 30.2909 131.632 30.8938 131.407 31.6601C131.193 32.4264 131.086 33.39 131.086 34.5507C131.086 35.5875 131.182 36.489 131.373 37.2553C131.565 38.0104 131.846 38.6189 132.218 39.081C132.579 39.5205 133.007 39.8416 133.503 40.0445C134.01 40.2473 134.585 40.3487 135.227 40.3487C135.779 40.3487 136.303 40.2586 136.799 40.0783C137.306 39.8867 137.735 39.5712 138.084 39.1317ZM169.339 34.5169C169.339 37.6385 168.427 40.1008 166.601 41.9039C164.787 43.6957 162.234 44.5916 158.944 44.5916C155.653 44.5916 153.095 43.6957 151.269 41.9039C149.455 40.1008 148.548 37.6385 148.548 34.5169C148.548 31.3727 149.46 28.9048 151.286 27.113C153.123 25.3211 155.675 24.4252 158.944 24.4252C162.257 24.4252 164.815 25.3268 166.618 27.1299C168.432 28.9329 169.339 31.3953 169.339 34.5169ZM161.851 39.1317C162.245 38.6471 162.538 38.0667 162.73 37.3906C162.933 36.7031 163.034 35.7565 163.034 34.5507C163.034 33.435 162.933 32.4997 162.73 31.7446C162.527 30.9896 162.245 30.3867 161.885 29.9359C161.524 29.4739 161.09 29.1471 160.583 28.9555C160.076 28.7639 159.53 28.6681 158.944 28.6681C158.358 28.6681 157.833 28.747 157.371 28.9048C156.921 29.0625 156.487 29.3781 156.07 29.8514C155.698 30.2909 155.399 30.8938 155.174 31.6601C154.96 32.4264 154.853 33.39 154.853 34.5507C154.853 35.5875 154.949 36.489 155.14 37.2553C155.332 38.0104 155.613 38.6189 155.985 39.081C156.346 39.5205 156.774 39.8416 157.27 40.0445C157.777 40.2473 158.352 40.3487 158.994 40.3487C159.546 40.3487 160.07 40.2586 160.566 40.0783C161.073 39.8867 161.502 39.5712 161.851 39.1317ZM186.007 22.1601H185.55C185.28 22.0812 184.925 21.9911 184.485 21.8896C184.057 21.7882 183.595 21.7375 183.099 21.7375C181.905 21.7375 181.093 21.9516 180.665 22.3798C180.248 22.8081 180.04 23.6364 180.04 24.8647V25.0169H184.739V29.1414H180.242V44H174.157V29.1414H171.554V25.0169H174.157V24.4928C174.157 22.1714 174.771 20.4303 176 19.2695C177.239 18.1088 179.11 17.5284 181.612 17.5284C182.513 17.5284 183.33 17.5622 184.063 17.6298C184.795 17.6862 185.443 17.7651 186.007 17.8665V22.1601Z" fill="#111111"/>
<path d="M0 49.4416L2.45449 49.4314L4.90873 49.4213L6.1646 48.0368C6.85543 47.2753 7.50196 46.5645 7.60156 46.4573C7.85117 46.1882 9.98508 43.8331 10.3049 43.4739C10.6784 43.054 17.1782 35.8895 17.2822 35.7828C17.3302 35.7337 17.7521 35.2681 18.22 34.7478C18.6879 34.2277 19.0926 33.8022 19.1193 33.8022C19.146 33.8022 19.5507 34.2277 20.0186 34.7478C20.4865 35.2681 20.9091 35.7342 20.9576 35.784C21.0626 35.8917 27.558 43.0514 27.9339 43.4739C28.2513 43.8306 30.3857 46.1862 30.6373 46.4573C30.7366 46.5645 31.3832 47.2753 32.074 48.0368L33.3299 49.4213L35.7841 49.4314L38.2386 49.4416V31.3452V13.2487L35.7858 13.2589L33.3333 13.2691L32.9929 13.6396C32.8059 13.8433 32.4305 14.2558 32.1591 14.5561C31.8875 14.8564 31.3902 15.4047 31.054 15.7747C30.7175 16.1448 30.164 16.7546 29.8236 17.13C28.3612 18.743 27.943 19.2038 27.2218 19.9965C26.8021 20.4577 26.3582 20.9489 26.2353 21.0883C26.1125 21.2278 25.7797 21.5964 25.4958 21.9074C24.9237 22.5344 23.8951 23.6685 23.4622 24.1499C23.3078 24.3214 23.0359 24.6197 22.8578 24.8128C22.5206 25.1781 21.1844 26.6534 20.7914 27.0942C20.6671 27.2336 20.3566 27.5759 20.1008 27.8548C19.8454 28.1336 19.5326 28.4802 19.4058 28.625C19.2654 28.7853 19.1931 28.8663 19.1216 28.8679C19.0485 28.8697 18.9762 28.7887 18.8327 28.625C18.706 28.4802 18.3932 28.1336 18.1377 27.8548C17.8823 27.5759 17.5715 27.2336 17.4472 27.0942C17.0541 26.6534 15.718 25.1781 15.3808 24.8128C15.2026 24.6197 14.9308 24.3214 14.7763 24.1499C14.3434 23.6685 13.3152 22.5344 12.7428 21.9074C12.4589 21.5964 12.1261 21.2278 12.0032 21.0883C11.8804 20.9489 11.4365 20.4577 11.0168 19.9965C10.5971 19.5353 9.98337 18.8596 9.65276 18.4949C9.32215 18.1303 8.77325 17.5249 8.43286 17.1495C8.0927 16.7741 7.535 16.1599 7.19362 15.7846C6.85249 15.4092 6.35107 14.8564 6.07944 14.5561C5.80805 14.2558 5.4329 13.8433 5.2457 13.6396L4.9053 13.2691L2.45277 13.2589L0 13.2487V31.3452V49.4416ZM8.60636 22.1548C8.76273 22.3297 10.6813 24.4468 12.8698 26.8594C15.0583 29.2719 16.8606 31.2743 16.875 31.3091C16.9019 31.3736 16.7465 31.5609 15.8421 32.5542C15.5589 32.8651 15.0529 33.4224 14.7174 33.7924C14.3819 34.1623 13.832 34.7679 13.4955 35.1379C12.6424 36.0757 11.4088 37.4384 11.1387 37.741C11.0143 37.8804 10.6808 38.2489 10.3974 38.56C9.87741 39.1309 9.18389 39.8951 8.03569 41.1632C7.27952 41.9981 7.06099 42.2387 6.5745 42.7719C5.8149 43.6047 4.67233 44.8674 4.41122 45.1631C4.0833 45.5345 3.84495 45.7748 3.80457 45.7748C3.78793 45.7748 3.77447 39.2814 3.77447 31.3452C3.77447 23.4089 3.79528 16.916 3.82073 16.9164C3.84642 16.917 4.86957 18.0242 6.09461 19.377C7.3199 20.7297 8.44999 21.9799 8.60636 22.1548ZM34.434 45.7748C34.3934 45.7748 34.154 45.5333 33.8278 45.1631C33.5922 44.8958 33.1292 44.3843 31.6629 42.7719C31.0215 42.0666 30.8472 41.8745 30.2029 41.1632C29.8583 40.7825 29.3009 40.1682 28.9646 39.7983C27.9611 38.6944 27.341 38.0099 27.1004 37.741C26.82 37.4274 25.5594 36.0356 24.7521 35.1476C24.4205 34.783 23.8707 34.1774 23.5303 33.8022C23.1899 33.4267 22.6796 32.8651 22.3965 32.5542C21.492 31.5609 21.3366 31.3736 21.3636 31.3091C21.378 31.2743 23.1803 29.2719 25.3688 26.8594C27.5573 24.4468 29.4758 22.3297 29.6322 22.1548C31.2297 20.3671 34.3814 16.9172 34.4179 16.9164C34.4433 16.916 34.4641 23.4089 34.4641 31.3452C34.4641 39.2814 34.4506 45.7748 34.434 45.7748Z" fill="#FF4D4D"/>
<path d="M38.1983 13.2487V49.4213H33.293L16.8375 31.335L19.3656 28.6047L33.293 13.2487H38.1983ZM34.4238 16.8961L21.3205 31.3248L34.4238 45.7545V16.8961Z" fill="#FFC5BB"/>
</g>
<defs>
<clipPath id="clip0_2_1646">
<rect width="186" height="60" fill="white"/>
</clipPath>
</defs>
</svg>
