<svg width="124" height="40" viewBox="0 0 124 40" fill="none" xmlns="http://www.w3.org/2000/svg">
<g clip-path="url(#clip0_2_2178)">
<path d="M49.3341 23.8612C49.3341 24.6726 49.1688 25.3976 48.8383 26.0362C48.5152 26.6748 48.0682 27.2044 47.4972 27.6251C46.8361 28.121 46.1074 28.4741 45.311 28.6845C44.5221 28.8948 43.5192 29 42.3021 29H34.977V12.22H41.4907C42.843 12.22 43.831 12.2651 44.4545 12.3552C45.0856 12.4454 45.7092 12.6445 46.3252 12.9525C46.9638 13.2756 47.4371 13.7113 47.7452 14.2598C48.0607 14.8007 48.2185 15.4205 48.2185 16.1192C48.2185 16.9306 48.0044 17.6481 47.5761 18.2716C47.1479 18.8877 46.5431 19.3685 45.7618 19.7141V19.8043C46.8586 20.0221 47.7264 20.4729 48.365 21.1566C49.0111 21.8402 49.3341 22.7418 49.3341 23.8612ZM43.7896 16.9644C43.7896 16.6864 43.7183 16.4084 43.5755 16.1305C43.4403 15.8525 43.1961 15.6459 42.843 15.5106C42.5275 15.3904 42.133 15.3266 41.6597 15.3191C41.1939 15.304 40.5366 15.2965 39.6876 15.2965H39.2819V18.8464H39.9581C40.6417 18.8464 41.224 18.8351 41.7048 18.8126C42.1856 18.79 42.565 18.7149 42.843 18.5872C43.2337 18.4144 43.4891 18.1927 43.6093 17.9223C43.7295 17.6443 43.7896 17.325 43.7896 16.9644ZM44.849 23.7936C44.849 23.2602 44.7438 22.8507 44.5334 22.5652C44.3306 22.2722 43.9812 22.0544 43.4854 21.9116C43.1473 21.8139 42.6815 21.7614 42.088 21.7538C41.4945 21.7463 40.8746 21.7426 40.2285 21.7426H39.2819V25.9235H39.5975C40.8145 25.9235 41.686 25.9197 42.2119 25.9122C42.7378 25.9047 43.2224 25.807 43.6657 25.6192C44.1164 25.4314 44.4245 25.1835 44.5898 24.8754C44.7626 24.5599 44.849 24.1993 44.849 23.7936ZM64.7956 23.4217H55.5097C55.5698 24.4134 55.9455 25.1722 56.6366 25.6981C57.3353 26.224 58.3608 26.4869 59.7132 26.4869C60.5696 26.4869 61.3998 26.3329 62.2037 26.0249C63.0075 25.7169 63.6424 25.3863 64.1082 25.0332H64.559V28.29C63.6424 28.6582 62.7784 28.9249 61.967 29.0902C61.1556 29.2554 60.2578 29.3381 59.2737 29.3381C56.7343 29.3381 54.7885 28.7671 53.4362 27.6251C52.0838 26.4832 51.4077 24.8567 51.4077 22.7455C51.4077 20.657 52.0463 19.0041 53.3235 17.787C54.6082 16.5624 56.3662 15.9502 58.5975 15.9502C60.656 15.9502 62.2037 16.4723 63.2404 17.5166C64.2772 18.5534 64.7956 20.0484 64.7956 22.0018V23.4217ZM60.7612 21.0439C60.7387 20.1949 60.5283 19.5563 60.1301 19.1281C59.7319 18.6999 59.1121 18.4857 58.2707 18.4857C57.4893 18.4857 56.847 18.6886 56.3436 19.0943C55.8403 19.5 55.5585 20.1498 55.4984 21.0439H60.7612ZM80.3698 29H76.2903V22.723C76.2903 22.2121 76.264 21.705 76.2114 21.2016C76.1588 20.6908 76.0687 20.3151 75.9409 20.0747C75.7907 19.7967 75.5691 19.5939 75.2761 19.4662C74.9906 19.3385 74.5886 19.2746 74.0702 19.2746C73.7021 19.2746 73.3265 19.3347 72.9433 19.4549C72.5677 19.5751 72.1582 19.7667 71.715 20.0296V29H67.658V11.465H71.715V17.742C72.4362 17.1785 73.1274 16.7465 73.7885 16.446C74.4572 16.1455 75.1972 15.9952 76.0086 15.9952C77.3759 15.9952 78.4427 16.3934 79.209 17.1898C79.9829 17.9861 80.3698 19.1769 80.3698 20.7621V29ZM97.0483 22.6779C97.0483 24.759 96.4398 26.4005 95.2227 27.6026C94.0132 28.7972 92.3115 29.3944 90.1177 29.3944C87.924 29.3944 86.2186 28.7972 85.0015 27.6026C83.7919 26.4005 83.1871 24.759 83.1871 22.6779C83.1871 20.5818 83.7957 18.9365 85.0127 17.742C86.2373 16.5474 87.939 15.9502 90.1177 15.9502C92.3265 15.9502 94.0319 16.5512 95.234 17.7532C96.4436 18.9553 97.0483 20.5969 97.0483 22.6779ZM92.056 25.7544C92.319 25.4314 92.5143 25.0445 92.6421 24.5937C92.7773 24.1354 92.8449 23.5043 92.8449 22.7005C92.8449 21.9567 92.7773 21.3331 92.6421 20.8298C92.5068 20.3264 92.319 19.9245 92.0786 19.6239C91.8382 19.3159 91.5489 19.098 91.2109 18.9703C90.8728 18.8426 90.5084 18.7787 90.1177 18.7787C89.7271 18.7787 89.3777 18.8313 89.0697 18.9365C88.7692 19.0417 88.4799 19.2521 88.2019 19.5676C87.954 19.8606 87.7549 20.2625 87.6047 20.7734C87.4619 21.2843 87.3906 21.9266 87.3906 22.7005C87.3906 23.3916 87.4544 23.9927 87.5821 24.5035C87.7099 25.0069 87.8977 25.4126 88.1456 25.7206C88.386 26.0136 88.6715 26.2278 89.0021 26.363C89.3401 26.4982 89.7233 26.5658 90.1515 26.5658C90.5197 26.5658 90.869 26.5057 91.1996 26.3855C91.5377 26.2578 91.8232 26.0474 92.056 25.7544ZM112.893 22.6779C112.893 24.759 112.284 26.4005 111.067 27.6026C109.858 28.7972 108.156 29.3944 105.962 29.3944C103.769 29.3944 102.063 28.7972 100.846 27.6026C99.6365 26.4005 99.0317 24.759 99.0317 22.6779C99.0317 20.5818 99.6403 18.9365 100.857 17.742C102.082 16.5474 103.784 15.9502 105.962 15.9502C108.171 15.9502 109.877 16.5512 111.079 17.7532C112.288 18.9553 112.893 20.5969 112.893 22.6779ZM107.901 25.7544C108.164 25.4314 108.359 25.0445 108.487 24.5937C108.622 24.1354 108.69 23.5043 108.69 22.7005C108.69 21.9567 108.622 21.3331 108.487 20.8298C108.351 20.3264 108.164 19.9245 107.923 19.6239C107.683 19.3159 107.394 19.098 107.055 18.9703C106.717 18.8426 106.353 18.7787 105.962 18.7787C105.572 18.7787 105.222 18.8313 104.914 18.9365C104.614 19.0417 104.325 19.2521 104.047 19.5676C103.799 19.8606 103.6 20.2625 103.449 20.7734C103.307 21.2843 103.235 21.9266 103.235 22.7005C103.235 23.3916 103.299 23.9927 103.427 24.5035C103.554 25.0069 103.742 25.4126 103.99 25.7206C104.231 26.0136 104.516 26.2278 104.847 26.363C105.185 26.4982 105.568 26.5658 105.996 26.5658C106.364 26.5658 106.714 26.5057 107.044 26.3855C107.382 26.2578 107.668 26.0474 107.901 25.7544ZM124.005 14.4401H123.7C123.52 14.3875 123.283 14.3274 122.99 14.2598C122.705 14.1921 122.397 14.1583 122.066 14.1583C121.27 14.1583 120.729 14.3011 120.443 14.5866C120.165 14.8721 120.026 15.4242 120.026 16.2432V16.3446H123.159V19.0943H120.162V29H116.105V19.0943H114.369V16.3446H116.105V15.9952C116.105 14.4476 116.514 13.2868 117.333 12.513C118.16 11.7392 119.407 11.3523 121.074 11.3523C121.676 11.3523 122.22 11.3748 122.709 11.4199C123.197 11.4575 123.629 11.51 124.005 11.5777V14.4401Z" fill="#111111"/>
<path d="M0 32.9611L1.63632 32.9543L3.27248 32.9475L4.10973 32.0245C4.57029 31.5168 5.00131 31.043 5.06771 30.9715C5.23411 30.7921 6.65672 29.222 6.86995 28.9826C7.1189 28.7027 11.4521 23.9263 11.5215 23.8552C11.5535 23.8225 11.8347 23.512 12.1466 23.1652C12.4586 22.8184 12.7284 22.5347 12.7462 22.5347C12.764 22.5347 13.0338 22.8184 13.3457 23.1652C13.6577 23.512 13.9394 23.8228 13.9717 23.856C14.0417 23.9278 18.372 28.7009 18.6226 28.9826C18.8342 29.2204 20.2571 30.7908 20.4248 30.9715C20.4911 31.043 20.9221 31.5168 21.3827 32.0245L22.2199 32.9475L23.8561 32.9543L25.4924 32.9611V20.8968V8.83246L23.8572 8.83925L22.2222 8.84603L21.9953 9.09302C21.8706 9.22886 21.6204 9.50382 21.4394 9.70403C21.2583 9.90423 20.9268 10.2698 20.7027 10.5165C20.4784 10.7631 20.1093 11.1697 19.8824 11.42C18.9074 12.4953 18.6286 12.8025 18.1479 13.331C17.8681 13.6384 17.5721 13.9659 17.4902 14.0589C17.4083 14.1518 17.1865 14.3976 16.9972 14.6049C16.6158 15.0229 15.9301 15.779 15.6415 16.0999C15.5385 16.2142 15.3573 16.4131 15.2385 16.5419C15.0137 16.7853 14.123 17.7689 13.8609 18.0628C13.7781 18.1557 13.571 18.3839 13.4006 18.5698C13.2302 18.7557 13.0217 18.9868 12.9372 19.0833C12.8436 19.1902 12.7954 19.2442 12.7477 19.2453C12.699 19.2464 12.6508 19.1924 12.5552 19.0833C12.4706 18.9868 12.2621 18.7557 12.0918 18.5698C11.9215 18.3839 11.7143 18.1557 11.6314 18.0628C11.3694 17.7689 10.4787 16.7853 10.2539 16.5419C10.1351 16.4131 9.95384 16.2142 9.85089 16.0999C9.5623 15.779 8.87677 15.0229 8.49518 14.6049C8.30593 14.3976 8.08406 14.1518 8.00216 14.0589C7.92026 13.9659 7.62432 13.6384 7.34453 13.331C7.06474 13.0235 6.65558 12.573 6.43517 12.3299C6.21477 12.0868 5.84884 11.6833 5.6219 11.433C5.39514 11.1827 5.02333 10.7732 4.79575 10.523C4.56833 10.2728 4.23405 9.90423 4.05296 9.70403C3.87203 9.50382 3.62194 9.22886 3.49713 9.09302L3.2702 8.84603L1.63518 8.83925L0 8.83246V20.8968V32.9611ZM5.73757 14.7698C5.84182 14.8864 7.12086 16.2978 8.57985 17.9063C10.0388 19.5146 11.2404 20.8495 11.25 20.8727C11.268 20.9157 11.1644 21.0406 10.5614 21.7028C10.3726 21.9101 10.0352 22.2816 9.81158 22.5283C9.58791 22.7749 9.22133 23.1786 8.99701 23.4252C8.42829 24.0504 7.60589 24.9589 7.42578 25.1607C7.3429 25.2536 7.12054 25.4993 6.93162 25.7067C6.58494 26.0872 6.12259 26.5967 5.35712 27.4421C4.85301 27.9987 4.70733 28.1591 4.383 28.5146C3.8766 29.0697 3.11489 29.9116 2.94081 30.1087C2.7222 30.3563 2.5633 30.5165 2.53638 30.5165C2.52529 30.5165 2.51632 26.1876 2.51632 20.8968C2.51632 15.6059 2.53018 11.2773 2.54715 11.2776C2.56428 11.278 3.24638 12.0161 4.06307 12.918C4.87993 13.8198 5.63333 14.6532 5.73757 14.7698ZM22.956 30.5165C22.9289 30.5165 22.7694 30.3555 22.5519 30.1087C22.3948 29.9305 22.0861 29.5895 21.1086 28.5146C20.681 28.0444 20.5648 27.9163 20.1353 27.4421C19.9056 27.1883 19.5339 26.7788 19.3098 26.5322C18.6407 25.7962 18.2273 25.3399 18.0669 25.1607C17.88 24.9516 17.0396 24.0237 16.5014 23.4317C16.2804 23.1886 15.9138 22.7849 15.6868 22.5347C15.4599 22.2845 15.1198 21.9101 14.931 21.7028C14.328 21.0406 14.2244 20.9157 14.2424 20.8727C14.252 20.8495 15.4535 19.5146 16.9125 17.9063C18.3715 16.2978 19.6506 14.8864 19.7548 14.7698C20.8198 13.5781 22.9209 11.2781 22.9452 11.2776C22.9622 11.2773 22.9761 15.6059 22.9761 20.8968C22.9761 26.1876 22.9671 30.5165 22.956 30.5165Z" fill="#FF4D4D"/>
<path d="M25.4656 8.83246V32.9475H22.1954L11.225 20.89L12.9104 19.0698L22.1954 8.83246H25.4656ZM22.9492 11.264L14.2137 20.8832L22.9492 30.503V11.264Z" fill="#FFC5BB"/>
</g>
<defs>
<clipPath id="clip0_2_2178">
<rect width="124" height="40" fill="white"/>
</clipPath>
</defs>
</svg>
